<?xml version="1.0" standalone="no"?>
<!DOCTYPE svg PUBLIC "-//W3C//DTD SVG 20010904//EN"
 "http://www.w3.org/TR/2001/REC-SVG-20010904/DTD/svg10.dtd">
<svg version="1.0" xmlns="http://www.w3.org/2000/svg"
 width="402.000000pt" height="143.000000pt" viewBox="0 0 402.000000 143.000000"
 preserveAspectRatio="xMidYMid meet">

<g transform="translate(0.000000,143.000000) scale(0.100000,-0.100000)"
fill="#000000" stroke="none">
<path d="M2715 1246 c-191 -60 -272 -155 -302 -354 -27 -177 -5 -288 82 -418
l43 -64 -37 -20 c-56 -28 -219 -66 -361 -84 -107 -14 -270 -16 -1093 -16 -567
0 -967 -4 -967 -9 0 -18 243 -24 950 -25 489 0 764 4 870 12 324 26 495 57
597 109 l52 26 43 -39 c24 -22 66 -55 93 -74 28 -18 52 -37 55 -41 12 -17 215
-90 318 -114 112 -26 294 -46 462 -49 91 -2 143 -2 115 0 -233 17 -346 27
-440 40 -173 25 -402 97 -457 144 -7 6 -42 32 -78 59 -102 76 -102 74 -23 115
37 20 93 58 123 84 90 77 210 199 210 214 0 7 -23 -13 -50 -44 -80 -90 -235
-214 -331 -263 -30 -16 -32 -16 -55 6 -13 12 -24 27 -24 32 0 5 -9 22 -20 37
-43 61 -70 155 -70 248 0 129 15 207 57 290 44 89 80 120 187 163 67 27 95 33
163 33 70 1 85 -2 113 -23 19 -14 31 -18 28 -10 -14 44 -161 64 -253 35z"/>
<path d="M2970 1187 c0 -3 12 -30 26 -62 24 -52 26 -65 22 -153 -3 -73 -10
-110 -28 -150 -12 -29 -20 -55 -17 -59 10 -9 44 79 58 146 18 93 -11 251 -51
276 -5 3 -10 4 -10 2z"/>
</g>
</svg>
