<?xml version="1.0" standalone="no"?>
<!DOCTYPE svg PUBLIC "-//W3C//DTD SVG 20010904//EN"
 "http://www.w3.org/TR/2001/REC-SVG-20010904/DTD/svg10.dtd">
<svg version="1.0" xmlns="http://www.w3.org/2000/svg"
 width="406.000000pt" height="333.000000pt" viewBox="0 0 406.000000 333.000000"
 preserveAspectRatio="xMidYMid meet">

<g transform="translate(0.000000,333.000000) scale(0.100000,-0.100000)"
fill="#000000" stroke="none">
<path d="M2435 3219 c-328 -26 -694 -111 -1340 -312 -44 -14 -134 -42 -200
-62 -65 -20 -142 -48 -170 -62 -220 -111 -374 -284 -474 -534 -161 -401 -189
-849 -75 -1191 167 -502 687 -873 1388 -988 177 -29 586 -46 733 -31 139 15
224 32 335 67 486 154 925 561 1182 1099 148 307 176 412 198 739 21 307 -18
569 -116 780 -146 317 -387 468 -788 495 -167 11 -528 11 -673 0z m830 -33
c193 -37 334 -105 440 -211 138 -137 215 -295 266 -540 27 -129 36 -405 19
-571 -27 -272 -57 -375 -181 -629 -306 -630 -769 -1026 -1350 -1157 -97 -21
-122 -23 -389 -21 -311 2 -449 14 -645 58 -396 88 -727 262 -955 501 -173 182
-266 358 -322 612 -28 127 -31 392 -5 559 52 335 176 633 330 791 138 142 231
191 542 287 732 225 967 283 1340 330 155 20 796 13 910 -9z"/>
</g>
</svg>
